{"accessors" : [{"bufferView" : 0, "byteOffset" : 0, "componentType" : 5123, "count" : 570, "type" : "SCALAR", "max" : [164], "min" : [0]}, {"bufferView" : 1, "byteOffset" : 0, "componentType" : 5126, "count" : 165, "type" : "VEC3", "max" : [0.052262309938669205, 0.6645914316177368, 0.07348474115133286], "min" : [0.017704326659440994, 0.6301171779632568, 0.05510672181844711], "name" : "POSITION"}, {"bufferView" : 1, "byteOffset" : 12, "componentType" : 5126, "count" : 165, "type" : "VEC3", "max" : [0.9745171070098877, 0.9792511463165283, 1.0000042915344238], "min" : [-0.9743994474411011, -0.9773388504981995, 0.1979924738407135], "name" : "NORMAL"}, {"bufferView" : 1, "byteOffset" : 24, "componentType" : 5126, "count" : 165, "type" : "VEC2", "max" : [0.9646214246749878, 0.9818061590194702], "min" : [0.019903719425201416, 0.020990610122680664], "name" : "TEXCOORD_0"}, {"bufferView" : 1, "byteOffset" : 32, "componentType" : 5126, "count" : 165, "type" : "VEC2", "max" : [0.9935725927352905, 0.9611957669258118], "min" : [0.04407842457294464, 0.020823240280151367], "name" : "TEXCOORD_1"}, {"bufferView" : 0, "byteOffset" : 1140, "componentType" : 5123, "count" : 8931, "type" : "SCALAR", "max" : [1604], "min" : [0]}, {"bufferView" : 3, "byteOffset" : 0, "componentType" : 5126, "count" : 1605, "type" : "VEC3", "max" : [0.10500003397464752, 0.7834926247596741, 0.08729898929595947], "min" : [-0.11894503980875015, 0.3947525918483734, -0.16924937069416046], "name" : "POSITION"}, {"bufferView" : 3, "byteOffset" : 12, "componentType" : 5126, "count" : 1605, "type" : "VEC3", "max" : [0.9999738335609436, 0.9948803186416626, 0.9975216388702393], "min" : [-0.999858558177948, -0.9931010007858276, -0.9994348883628845], "name" : "NORMAL"}, {"bufferView" : 3, "byteOffset" : 24, "componentType" : 5126, "count" : 1605, "type" : "VEC2", "max" : [0.9996466040611267, 0.9951984882354736], "min" : [0.0021478808484971523, 0.01721322536468506], "name" : "TEXCOORD_0"}, {"bufferView" : 3, "byteOffset" : 32, "componentType" : 5126, "count" : 1605, "type" : "VEC2", "max" : [0, 1], "min" : [0, 1], "name" : "TEXCOORD_1"}, {"bufferView" : 0, "byteOffset" : 19004, "componentType" : 5123, "count" : 10344, "type" : "SCALAR", "max" : [2055], "min" : [0]}, {"bufferView" : 6, "byteOffset" : 0, "componentType" : 5126, "count" : 2056, "type" : "VEC3", "max" : [0.8336747288703918, 0.3603891432285309, 0.09627869725227356], "min" : [-0.8336747288703918, 0.31057631969451904, -0.04603327065706253], "name" : "POSITION"}, {"bufferView" : 6, "byteOffset" : 12, "componentType" : 5126, "count" : 2056, "type" : "VEC3", "max" : [0.9994828104972839, 0.9997457265853882, 0.9974437952041626], "min" : [-0.9994829297065735, -0.9997031092643738, -0.9974483847618103], "name" : "NORMAL"}, {"bufferView" : 6, "byteOffset" : 24, "componentType" : 5126, "count" : 2056, "type" : "VEC2", "max" : [0.968315601348877, 0.9907870292663574], "min" : [0.46754491329193115, 0.4208555221557617], "name" : "TEXCOORD_0"}, {"bufferView" : 0, "byteOffset" : 39692, "componentType" : 5123, "count" : 12282, "type" : "SCALAR", "max" : [2161], "min" : [0]}, {"bufferView" : 8, "byteOffset" : 0, "componentType" : 5126, "count" : 2162, "type" : "VEC3", "max" : [0.09330464154481888, 0.7566767930984497, 0.10501644015312195], "min" : [-0.09330549091100693, 0.44323989748954773, -0.10545807331800461], "name" : "POSITION"}, {"bufferView" : 8, "byteOffset" : 12, "componentType" : 5126, "count" : 2162, "type" : "VEC3", "max" : [0.998779833316803, 0.9995689392089844, 1.0000035762786865], "min" : [-0.998772144317627, -0.9998265504837036, -0.9998021721839905], "name" : "NORMAL"}, {"bufferView" : 8, "byteOffset" : 24, "componentType" : 5126, "count" : 2162, "type" : "VEC2", "max" : [0.9943000078201294, 0.9807000160217285], "min" : [0.004999999888241291, 0.004350006580352783], "name" : "TEXCOORD_0"}, {"bufferView" : 0, "byteOffset" : 64256, "componentType" : 5123, "count" : 1701, "type" : "SCALAR", "max" : [508], "min" : [0]}, {"bufferView" : 9, "byteOffset" : 0, "componentType" : 5126, "count" : 509, "type" : "VEC3", "max" : [0.09149143099784851, 0.5506001710891724, 0.031370602548122406], "min" : [-0.09169305115938187, 0.4081522822380066, -0.10035333037376404], "name" : "POSITION"}, {"bufferView" : 9, "byteOffset" : 12, "componentType" : 5126, "count" : 509, "type" : "VEC3", "max" : [0.9959844946861267, 0.9989917874336243, 0.9988673329353333], "min" : [-0.9978512525558472, -0.9707725644111633, -0.9481463432312012], "name" : "NORMAL"}, {"bufferView" : 9, "byteOffset" : 24, "componentType" : 5126, "count" : 509, "type" : "VEC2", "max" : [0.9181128740310669, 0.979159414768219], "min" : [0.014290831983089447, 0.01619178056716919], "name" : "TEXCOORD_0"}, {"bufferView" : 0, "byteOffset" : 67660, "componentType" : 5123, "count" : 300, "type" : "SCALAR", "max" : [83], "min" : [0]}, {"bufferView" : 11, "byteOffset" : 0, "componentType" : 5126, "count" : 84, "type" : "VEC3", "max" : [0.02712002955377102, 0.5983307361602783, 0.08055821806192398], "min" : [-0.027120031416416168, 0.5623373985290527, 0.015430012717843056], "name" : "POSITION"}, {"bufferView" : 11, "byteOffset" : 12, "componentType" : 5126, "count" : 84, "type" : "VEC3", "max" : [0.997192919254303, 0.8711751103401184, 0.9993760585784912], "min" : [-0.997192919254303, -0.9911896586418152, -0.7417029738426208], "name" : "NORMAL"}, {"bufferView" : 11, "byteOffset" : 24, "componentType" : 5126, "count" : 84, "type" : "VEC2", "max" : [0.9808249473571777, 0.983213484287262], "min" : [0.051069796085357666, 0.02829587459564209], "name" : "TEXCOORD_0"}], "asset" : {"generator" : "Aspose.3D 21.4", "version" : "2.0"}, "buffers" : [{"uri" : "buffer.bin", "byteLength" : 1506188}], "bufferViews" : [{"buffer" : 0, "byteOffset" : 0, "byteLength" : 68260, "target" : 34963}, {"buffer" : 0, "byteOffset" : 68264, "byteLength" : 22800, "byteStride" : 40, "target" : 34962}, {"buffer" : 0, "byteOffset" : 91068, "byteLength" : 3364}, {"buffer" : 0, "byteOffset" : 94436, "byteLength" : 357240, "byteStride" : 40, "target" : 34962}, {"buffer" : 0, "byteOffset" : 451680, "byteLength" : 95904}, {"buffer" : 0, "byteOffset" : 547588, "byteLength" : 1667}, {"buffer" : 0, "byteOffset" : 549256, "byteLength" : 331008, "byteStride" : 32, "target" : 34962}, {"buffer" : 0, "byteOffset" : 880268, "byteLength" : 19603}, {"buffer" : 0, "byteOffset" : 899872, "byteLength" : 393024, "byteStride" : 32, "target" : 34962}, {"buffer" : 0, "byteOffset" : 1292900, "byteLength" : 54432, "byteStride" : 32, "target" : 34962}, {"buffer" : 0, "byteOffset" : 1347336, "byteLength" : 87447}, {"buffer" : 0, "byteOffset" : 1434784, "byteLength" : 9600, "byteStride" : 32, "target" : 34962}, {"buffer" : 0, "byteOffset" : 1444388, "byteLength" : 61799}], "images" : [{"mimeType" : "image/jpeg", "bufferView" : 2}, {"mimeType" : "image/png", "bufferView" : 4}, {"mimeType" : "image/jpeg", "bufferView" : 5}, {"mimeType" : "image/jpeg", "bufferView" : 7}, {"mimeType" : "image/png", "bufferView" : 10}, {"mimeType" : "image/jpeg", "bufferView" : 12}], "materials" : [{"pbrMetallicRoughness" : {"baseColorFactor" : [1, 1, 1, 1], "baseColorTexture" : {"index" : 0, "texCoord" : 0}, "metallicFactor" : 0, "roughnessFactor" : 1}, "emissiveFactor" : [0, 0, 0], "alphaMode" : "OPAQUE", "doubleSided" : true}, {"pbrMetallicRoughness" : {"baseColorFactor" : [1, 1, 1, 1], "baseColorTexture" : {"index" : 0, "texCoord" : 0}, "metallicFactor" : 0, "roughnessFactor" : 1}, "emissiveFactor" : [0, 0, 0], "alphaMode" : "OPAQUE", "doubleSided" : true}, {"pbrMetallicRoughness" : {"baseColorFactor" : [1, 1, 1, 1], "baseColorTexture" : {"index" : 2, "texCoord" : 0}, "metallicFactor" : 0, "roughnessFactor" : 0.7540331482887268}, "normalTexture" : {"index" : 1, "texCoord" : 0, "scale" : 1}, "emissiveFactor" : [0, 0, 0], "alphaMode" : "OPAQUE", "doubleSided" : true}, {"pbrMetallicRoughness" : {"baseColorFactor" : [1, 1, 1, 1], "baseColorTexture" : {"index" : 3, "texCoord" : 0}, "metallicFactor" : 0, "roughnessFactor" : 0.699999988079071}, "emissiveFactor" : [0, 0, 0], "alphaMode" : "OPAQUE", "doubleSided" : true}, {"pbrMetallicRoughness" : {"baseColorFactor" : [1, 1, 1, 1], "baseColorTexture" : {"index" : 3, "texCoord" : 0}, "metallicFactor" : 0, "roughnessFactor" : 0.699999988079071}, "emissiveFactor" : [0, 0, 0], "alphaMode" : "OPAQUE", "doubleSided" : true}, {"pbrMetallicRoughness" : {"baseColorFactor" : [1, 1, 1, 1], "baseColorTexture" : {"index" : 4, "texCoord" : 0}, "metallicFactor" : 0, "roughnessFactor" : 1}, "emissiveFactor" : [0, 0, 0], "alphaMode" : "OPAQUE", "doubleSided" : true}, {"pbrMetallicRoughness" : {"baseColorFactor" : [1, 1, 1, 1], "baseColorTexture" : {"index" : 5, "texCoord" : 0}, "metallicFactor" : 0, "roughnessFactor" : 1}, "emissiveFactor" : [0, 0, 0], "alphaMode" : "OPAQUE", "doubleSided" : true}], "meshes" : [{"primitives" : [{"attributes" : {"POSITION" : 1, "NORMAL" : 2, "TEXCOORD_0" : 3, "TEXCOORD_1" : 4}, "indices" : 0, "material" : 0, "mode" : 4}]}, {"primitives" : [{"attributes" : {"POSITION" : 1, "NORMAL" : 2, "TEXCOORD_0" : 3, "TEXCOORD_1" : 4}, "indices" : 0, "material" : 1, "mode" : 4}]}, {"primitives" : [{"attributes" : {"POSITION" : 6, "NORMAL" : 7, "TEXCOORD_0" : 8, "TEXCOORD_1" : 9}, "indices" : 5, "material" : 2, "mode" : 4}]}, {"primitives" : [{"attributes" : {"POSITION" : 11, "NORMAL" : 12, "TEXCOORD_0" : 13}, "indices" : 10, "material" : 3, "mode" : 4}]}, {"primitives" : [{"attributes" : {"POSITION" : 15, "NORMAL" : 16, "TEXCOORD_0" : 17}, "indices" : 14, "material" : 4, "mode" : 4}]}, {"primitives" : [{"attributes" : {"POSITION" : 19, "NORMAL" : 20, "TEXCOORD_0" : 21}, "indices" : 18, "material" : 5, "mode" : 4}]}, {"primitives" : [{"attributes" : {"POSITION" : 23, "NORMAL" : 24, "TEXCOORD_0" : 25}, "indices" : 22, "material" : 6, "mode" : 4}]}], "nodes" : [{"mesh" : 0, "name" : "EyeLeft"}, {"mesh" : 1, "name" : "EyeRight"}, {"mesh" : 2, "name" : "Wolf3D_Hair"}, {"mesh" : 3, "name" : "Wolf3D_Hands"}, {"mesh" : 4, "name" : "Wolf3D_Head"}, {"mesh" : 5, "name" : "Wolf3D_Shirt"}, {"mesh" : 6, "name" : "Wolf3D_Teeth"}, {"children" : [0, 1, 2, 3, 4, 5, 6], "name" : "AvatarRoot"}], "samplers" : [{"magFilter" : 9729, "minFilter" : 9986, "wrapS" : 10497, "wrapT" : 10497}, {"magFilter" : 9729, "minFilter" : 9986, "wrapS" : 10497, "wrapT" : 10497}, {"magFilter" : 9729, "minFilter" : 9986, "wrapS" : 10497, "wrapT" : 10497}, {"magFilter" : 9729, "minFilter" : 9986, "wrapS" : 10497, "wrapT" : 10497}, {"magFilter" : 9729, "minFilter" : 9986, "wrapS" : 10497, "wrapT" : 10497}, {"magFilter" : 9729, "minFilter" : 9986, "wrapS" : 10497, "wrapT" : 10497}], "scene" : 0, "scenes" : [{"nodes" : [7]}], "textures" : [{"sampler" : 0, "source" : 0}, {"sampler" : 1, "source" : 1}, {"sampler" : 2, "source" : 2}, {"sampler" : 3, "source" : 3}, {"sampler" : 4, "source" : 4}, {"sampler" : 5, "source" : 5}]}